<?xml version="1.0" standalone="no"?>
<!DOCTYPE svg PUBLIC "-//W3C//DTD SVG 20010904//EN"
 "http://www.w3.org/TR/2001/REC-SVG-20010904/DTD/svg10.dtd">
<svg version="1.0" xmlns="http://www.w3.org/2000/svg"
 width="144.000000pt" height="140.000000pt" viewBox="0 0 144.000000 140.000000"
 preserveAspectRatio="xMidYMid meet">

<g transform="translate(0.000000,140.000000) scale(0.100000,-0.100000)"
fill="#000000" stroke="none">
<path d="M621 1284 c0 -11 3 -14 6 -6 3 7 2 16 -1 19 -3 4 -6 -2 -5 -13z"/>
<path d="M692 1280 c0 -14 2 -19 5 -12 2 6 2 18 0 25 -3 6 -5 1 -5 -13z"/>
<path d="M768 1293 c6 -2 12 -13 12 -24 0 -10 5 -19 10 -19 6 0 10 11 10 25 0
19 -5 25 -22 24 -13 0 -17 -3 -10 -6z"/>
<path d="M510 1276 c0 -2 7 -6 15 -10 8 -3 15 -1 15 4 0 6 -7 10 -15 10 -8 0
-15 -2 -15 -4z"/>
<path d="M600 1267 c0 -10 8 -17 18 -17 9 0 13 4 7 8 -5 4 -13 11 -17 16 -5 5
-8 2 -8 -7z"/>
<path d="M881 1264 c0 -11 3 -14 6 -6 3 7 2 16 -1 19 -3 4 -6 -2 -5 -13z"/>
<path d="M510 1251 c0 -10 19 -25 25 -20 1 2 -3 10 -11 17 -8 7 -14 8 -14 3z"/>
<path d="M850 1249 c0 -5 5 -7 10 -4 6 3 10 8 10 11 0 2 -4 4 -10 4 -5 0 -10
-5 -10 -11z"/>
<path d="M425 1240 c-3 -5 -1 -18 5 -27 10 -16 11 -16 7 4 -3 12 0 24 7 27 8
3 8 5 -1 5 -6 1 -15 -3 -18 -9z"/>
<path d="M1000 1200 c-6 -11 -8 -20 -6 -20 3 0 10 9 16 20 6 11 8 20 6 20 -3
0 -10 -9 -16 -20z"/>
<path d="M286 1162 c-9 -14 23 -45 40 -38 16 6 15 8 -1 26 -19 21 -31 25 -39
12z m34 -17 c7 -8 9 -15 6 -15 -4 0 -14 7 -22 15 -9 8 -11 15 -6 15 5 0 15 -7
22 -15z"/>
<path d="M1050 1147 c0 -22 31 -19 37 3 4 13 3 13 -6 0 -10 -13 -12 -13 -21 0
-8 13 -10 12 -10 -3z"/>
<path d="M1127 1101 c-11 -14 -10 -14 6 -2 20 15 23 2 5 -18 -10 -11 -10 -12
-1 -7 7 4 17 15 22 25 13 23 -14 25 -32 2z"/>
<path d="M214 1099 c-9 -14 31 -53 45 -45 17 11 13 22 -13 40 -17 11 -27 12
-32 5z m32 -19 c8 0 14 -4 14 -10 0 -5 -4 -10 -8 -10 -12 0 -32 22 -31 35 0 5
3 4 6 -2 2 -7 11 -13 19 -13z"/>
<path d="M160 1016 c0 -8 4 -17 8 -20 4 -2 8 4 8 15 0 10 -4 19 -8 19 -4 0 -8
-6 -8 -14z"/>
<path d="M1234 970 c0 -13 4 -16 10 -10 7 7 7 13 0 20 -6 6 -10 3 -10 -10z"/>
<path d="M663 960 c-49 -22 -58 -34 -14 -17 23 9 34 7 55 -6 28 -19 52 -59 57
-97 4 -24 2 -25 -48 -25 -66 1 -107 33 -100 79 4 27 3 27 -10 11 -7 -11 -13
-25 -13 -32 0 -8 -9 -13 -22 -12 -45 4 -63 -1 -93 -27 -29 -24 -29 -24 -3 -8
17 10 37 14 52 10 31 -8 66 -55 73 -101 6 -34 5 -35 -29 -35 -74 0 -118 30
-118 80 0 12 -4 18 -10 15 -17 -10 -12 -91 8 -114 9 -12 35 -28 57 -35 22 -8
39 -17 38 -20 -37 -108 24 -195 116 -167 45 13 97 53 106 80 4 13 20 21 53 26
37 5 56 16 89 50 37 36 43 48 43 84 0 82 -42 121 -131 121 -22 0 -39 5 -39 10
0 6 5 10 10 10 6 0 10 19 10 41 0 32 -6 47 -26 65 -14 13 -29 24 -34 24 -4 0
-14 2 -22 5 -7 2 -32 -4 -55 -15z m27 -210 c15 0 20 -5 18 -17 -2 -13 -15 -19
-46 -21 -44 -3 -46 -1 -36 35 5 18 10 21 24 13 10 -6 28 -10 40 -10z m214 -21
c52 -41 19 -129 -48 -129 -46 0 -76 11 -76 26 0 7 -13 29 -30 47 -16 19 -30
44 -30 56 0 20 5 21 79 21 64 0 83 -4 105 -21z m-199 -109 c3 -11 17 -28 31
-39 29 -23 30 -31 3 -65 -53 -67 -179 2 -179 99 0 24 2 25 69 25 61 0 70 -3
76 -20z"/>
<path d="M125 940 c3 -5 13 -10 21 -10 8 0 12 5 9 10 -3 6 -13 10 -21 10 -8 0
-12 -4 -9 -10z"/>
<path d="M1255 941 c3 -6 -3 -15 -12 -21 -17 -11 -17 -11 0 -6 10 3 21 6 23 6
2 0 4 7 4 15 0 8 -5 15 -11 15 -5 0 -8 -4 -4 -9z"/>
<path d="M138 913 c7 -3 16 -2 19 1 4 3 -2 6 -13 5 -11 0 -14 -3 -6 -6z"/>
<path d="M1285 861 c4 -8 2 -17 -6 -22 -9 -6 -10 -9 -2 -9 19 0 27 21 13 33
-10 9 -11 9 -5 -2z"/>
<path d="M84 842 c12 -12 18 -13 29 -4 8 7 18 8 22 4 5 -4 5 -1 0 6 -5 10 -10
11 -18 3 -13 -13 -31 -15 -23 -3 3 5 -2 9 -10 9 -13 0 -13 -2 0 -15z"/>
<path d="M105 761 c3 -5 -4 -12 -15 -14 -18 -4 -18 -5 2 -3 22 1 39 26 18 26
-6 0 -9 -4 -5 -9z"/>
<path d="M1310 762 c0 -7 -10 -13 -22 -13 -19 -1 -20 -2 -4 -6 20 -5 44 12 33
24 -4 3 -7 1 -7 -5z"/>
<path d="M115 540 c-13 -6 -15 -9 -5 -9 8 0 22 4 30 9 18 12 2 12 -25 0z"/>
<path d="M1241 533 c0 -11 3 -13 6 -5 2 6 9 12 14 12 6 0 8 -4 4 -9 -7 -13 12
-24 27 -15 7 5 5 11 -7 21 -26 18 -45 16 -44 -4z"/>
<path d="M116 511 c-3 -4 6 -6 19 -3 14 2 25 6 25 8 0 8 -39 4 -44 -5z"/>
<path d="M1215 460 c-8 -13 3 -30 18 -30 8 0 7 3 -2 9 -7 5 -10 14 -7 20 4 6
5 11 2 11 -3 0 -8 -4 -11 -10z"/>
<path d="M130 438 c0 -14 15 -16 27 -3 10 11 9 13 -7 12 -11 -1 -20 -5 -20 -9z"/>
<path d="M226 331 c-3 -4 6 -6 21 -3 34 6 27 -20 -8 -29 -22 -6 -22 -7 -3 -8
25 -1 49 23 39 39 -7 12 -42 13 -49 1z"/>
<path d="M1130 323 c0 -14 2 -15 9 -4 11 17 34 4 27 -15 -3 -8 -1 -14 4 -14
14 0 12 24 -2 38 -18 18 -38 15 -38 -5z"/>
<path d="M1096 257 c3 -10 9 -15 12 -12 3 3 0 11 -7 18 -10 9 -11 8 -5 -6z"/>
<path d="M290 243 c0 -22 22 -26 38 -7 16 17 16 17 -1 4 -16 -12 -20 -12 -28
1 -5 9 -9 10 -9 2z"/>
<path d="M1078 228 c5 -5 16 -8 23 -6 8 3 3 7 -10 11 -17 4 -21 3 -13 -5z"/>
<path d="M997 208 c-18 -13 -15 -48 4 -48 13 0 11 14 -3 30 -8 8 -2 7 15 -3
29 -19 35 -12 14 16 -10 15 -15 16 -30 5z"/>
<path d="M511 153 c-1 -6 -4 -20 -7 -30 -5 -17 -5 -17 6 0 6 10 9 23 6 30 -3
9 -5 9 -5 0z"/>
<path d="M420 146 c0 -2 7 -7 16 -10 8 -3 12 -2 9 4 -6 10 -25 14 -25 6z"/>
<path d="M828 143 c7 -3 16 -2 19 1 4 3 -2 6 -13 5 -11 0 -14 -3 -6 -6z"/>
<path d="M920 135 c0 -8 4 -15 10 -15 5 0 7 7 4 15 -4 8 -8 15 -10 15 -2 0 -4
-7 -4 -15z"/>
<path d="M724 129 c-5 -8 -3 -9 6 -4 7 4 16 2 22 -6 8 -12 9 -12 6 0 -6 20
-24 25 -34 10z"/>
<path d="M632 105 c0 -16 2 -22 5 -12 2 9 2 23 0 30 -3 6 -5 -1 -5 -18z"/>
<path d="M657 117 c-3 -8 -1 -20 4 -28 6 -10 9 -7 9 14 0 29 -5 35 -13 14z"/>
<path d="M846 119 c3 -6 0 -16 -7 -21 -12 -8 -11 -9 1 -5 18 4 27 37 10 37 -6
0 -8 -5 -4 -11z"/>
<path d="M740 90 c-13 -8 -12 -10 3 -10 9 0 17 5 17 10 0 12 -1 12 -20 0z"/>
</g>
</svg>
